<?xml version="1.0" standalone="no"?>
<!DOCTYPE svg PUBLIC "-//W3C//DTD SVG 20010904//EN"
 "http://www.w3.org/TR/2001/REC-SVG-20010904/DTD/svg10.dtd">
<svg version="1.0" xmlns="http://www.w3.org/2000/svg"
 width="375.000000pt" height="375.000000pt" viewBox="0 0 375.000000 375.000000"
 preserveAspectRatio="xMidYMid meet">
<metadata>
Created by potrace 1.14, written by Peter Selinger 2001-2017
</metadata>
<g transform="translate(0.000000,375.000000) scale(0.100000,-0.100000)"
fill="#000000" stroke="none">
<path d="M2219 3186 c-2 -2 -49 -6 -104 -10 -55 -3 -111 -8 -125 -10 -14 -2
-52 -7 -85 -11 -33 -3 -76 -10 -95 -15 -19 -5 -53 -11 -74 -15 -142 -21 -321
-82 -412 -141 -75 -47 -88 -80 -80 -199 3 -49 8 -99 10 -110 2 -11 7 -47 11
-80 6 -50 13 -65 40 -91 36 -34 52 -40 320 -139 99 -36 189 -70 200 -75 11 -5
65 -28 120 -51 230 -96 375 -176 375 -207 0 -23 -156 -171 -238 -225 -225
-148 -499 -228 -782 -228 -151 -1 -264 43 -349 136 -53 58 -91 138 -98 210 -7
62 -19 79 -27 38 -21 -107 -26 -165 -22 -269 7 -176 39 -265 128 -351 53 -52
144 -107 212 -129 218 -71 249 -165 172 -511 -54 -240 -46 -317 34 -362 50
-28 85 -27 116 4 23 23 25 32 23 97 -1 40 -8 100 -15 133 -7 34 -16 84 -20
111 -3 27 -8 58 -10 69 -11 48 -12 195 -2 245 11 64 55 129 101 152 33 17 241
68 289 71 14 1 24 5 22 8 -4 7 117 64 129 61 4 -1 7 3 7 9 0 6 7 8 16 5 8 -3
13 -2 10 2 -3 5 24 26 60 48 35 21 64 43 64 48 0 4 7 5 16 2 8 -3 13 -2 10 3
-3 5 11 22 32 37 46 35 172 162 172 174 0 4 3 10 8 12 4 2 20 23 37 48 16 25
34 48 38 51 5 3 9 10 10 15 0 5 11 33 24 62 67 151 62 284 -13 398 -106 159
-334 293 -801 470 -76 29 -85 37 -55 53 76 40 640 51 877 16 11 -1 26 -3 33
-4 30 -3 7 -29 -53 -59 -35 -19 -68 -38 -71 -44 -4 -6 7 -21 24 -34 30 -24 30
-26 24 -87 -13 -130 -1 -173 42 -157 28 9 35 39 20 82 -18 51 -26 108 -19 139
10 43 45 56 180 64 197 13 202 17 259 190 27 83 34 107 41 164 3 18 7 36 9 40
11 17 -25 72 -56 85 -67 29 -73 31 -156 34 -24 1 -41 5 -39 10 5 8 -4 8 -304
16 -114 3 -208 4 -210 2z"/>
</g>
</svg>
